<?xml version="1.0" standalone="no"?>
<!DOCTYPE svg PUBLIC "-//W3C//DTD SVG 20010904//EN"
 "http://www.w3.org/TR/2001/REC-SVG-20010904/DTD/svg10.dtd">
<svg version="1.0" xmlns="http://www.w3.org/2000/svg"
 width="677.000000pt" height="677.000000pt" viewBox="0 0 677.000000 677.000000"
 preserveAspectRatio="xMidYMid meet">

<g transform="translate(0.000000,677.000000) scale(0.100000,-0.100000)"
fill="#000000" stroke="none">
<path d="M2380 4731 c-30 -10 -73 -27 -95 -39 l-40 -21 43 -1 c148 -1 232
-166 232 -455 0 -219 -65 -497 -191 -815 -55 -139 -223 -467 -300 -585 -171
-263 -328 -434 -456 -497 -91 -45 -175 -47 -245 -5 -57 33 -60 24 -19 -49 100
-174 379 -284 786 -310 l100 -6 107 55 c257 131 397 269 628 617 119 179 172
286 234 472 61 181 164 602 175 715 11 109 0 256 -28 357 -20 71 -70 191 -77
184 -2 -2 0 -27 5 -56 4 -28 4 -49 -1 -46 -4 3 -8 10 -8 17 0 14 -107 194
-120 202 -5 3 -1 -13 9 -37 43 -101 81 -321 81 -476 0 -162 -31 -322 -130
-667 -62 -215 -83 -273 -148 -402 -155 -312 -430 -655 -631 -788 -81 -53 -163
-90 -226 -100 -36 -6 -33 -3 35 32 41 21 111 63 155 93 l80 55 -98 7 -99 8
-43 -38 c-50 -44 -148 -94 -219 -111 -62 -15 -69 -8 -14 13 75 31 232 146 217
160 -13 13 -130 96 -135 96 -3 0 -37 -29 -76 -65 -38 -35 -95 -77 -126 -92
-68 -33 -160 -42 -212 -20 l-35 15 59 0 c79 1 185 52 269 132 59 55 61 59 45
76 -19 22 -41 74 -30 74 4 -1 22 -14 41 -30 18 -15 38 -26 45 -24 15 6 104
122 170 220 l52 78 -30 27 c-39 34 -31 43 22 25 49 -18 35 -37 166 216 l97
187 -40 21 c-23 11 -41 23 -41 25 0 5 29 0 73 -12 14 -4 25 12 53 73 29 62
114 301 114 319 0 3 -18 8 -40 11 -58 9 -49 26 12 22 l52 -3 14 47 c7 25 26
104 42 175 32 141 31 142 -35 144 l-40 1 30 13 c17 8 40 14 51 15 12 0 25 8
29 18 9 24 30 270 23 277 -5 6 -62 -6 -106 -22 -12 -4 -10 1 7 21 14 14 42 32
64 38 l39 12 -6 75 c-4 42 -10 93 -13 115 l-6 38 -49 -6 c-57 -8 -57 4 -1 32
l35 19 -44 54 c-82 100 -128 116 -238 80z m894 -831 c0 -115 -6 -186 -22 -275
-106 -572 -380 -1126 -686 -1387 -117 -99 -122 -108 56 102 44 52 122 158 173
235 189 287 301 539 379 856 46 187 65 319 73 507 5 118 9 150 17 135 7 -11
11 -78 10 -173z"/>
<path d="M2688 4641 c23 -53 30 -60 66 -71 23 -7 58 -21 79 -32 22 -11 41 -17
44 -14 10 9 -46 94 -76 116 -34 23 -110 59 -128 60 -7 0 -1 -23 15 -59z"/>
<path d="M2188 4596 c-57 -21 -162 -110 -248 -212 -78 -93 -235 -312 -229
-319 2 -1 38 -6 79 -10 l75 -7 60 89 c165 246 302 365 422 367 29 1 53 5 53 9
0 20 -42 66 -74 81 -41 19 -88 20 -138 2z"/>
<path d="M2900 4575 c0 -2 9 -19 20 -37 11 -18 20 -40 20 -49 0 -12 13 -18 51
-23 28 -4 53 -5 55 -3 8 7 -39 59 -79 88 -36 26 -67 37 -67 24z"/>
<path d="M2733 4509 c4 -13 7 -65 7 -115 l0 -92 43 -10 c23 -6 68 -27 100 -46
l57 -35 0 37 c0 70 -29 206 -47 219 -16 12 -86 41 -142 58 -22 7 -23 5 -18
-16z"/>
<path d="M2960 4396 c0 -6 7 -36 15 -66 8 -30 16 -76 16 -102 2 -45 3 -48 33
-54 18 -3 50 -4 71 -2 40 3 40 3 37 42 -2 22 -14 73 -25 114 l-22 75 -62 2
c-39 0 -63 -3 -63 -9z"/>
<path d="M3320 4294 c0 -5 12 -52 25 -104 14 -52 28 -135 32 -183 5 -71 9 -87
20 -82 8 3 26 5 40 5 24 0 24 2 18 43 -21 134 -72 273 -115 312 -11 10 -20 14
-20 9z"/>
<path d="M2740 4208 c0 -29 -7 -96 -15 -148 -8 -52 -13 -95 -12 -96 1 0 24 -9
50 -19 27 -10 72 -35 102 -56 48 -34 55 -36 60 -20 4 15 24 236 25 289 0 13
-172 102 -197 102 -9 0 -13 -16 -13 -52z"/>
<path d="M2990 4016 c0 -61 -4 -128 -9 -148 l-9 -38 41 -11 c42 -11 103 -7
119 9 4 4 11 73 14 152 l7 145 -82 1 -81 0 0 -110z"/>
<path d="M3498 3975 c3 -62 9 -85 25 -102 11 -13 24 -23 28 -23 8 0 -16 88
-44 165 -14 40 -14 39 -9 -40z"/>
<path d="M6330 3950 c-95 -17 -166 -63 -201 -131 -46 -92 -60 -233 -28 -301 7
-16 49 -56 93 -90 140 -106 146 -114 146 -177 0 -78 -25 -125 -67 -129 -27 -3
-33 1 -38 21 -6 21 7 121 21 170 5 15 -5 17 -109 17 l-115 0 -11 -63 c-28
-161 -8 -224 84 -272 52 -27 67 -30 150 -29 81 0 99 4 156 31 71 34 101 59
124 103 25 48 45 150 45 230 0 108 -14 127 -190 258 l-65 48 0 61 c0 68 21
103 61 103 30 0 36 -24 24 -90 -5 -29 -10 -54 -10 -56 0 -2 51 -4 114 -4 l113
0 7 38 c13 80 7 168 -14 194 -42 54 -185 87 -290 68z"/>
<path d="M1803 3930 c-88 -18 -177 -80 -213 -151 -23 -43 -39 -112 -79 -329
-53 -295 -56 -344 -23 -407 52 -97 240 -132 375 -70 144 66 168 124 237 557
35 220 36 241 10 296 -43 88 -169 131 -307 104z m85 -177 c5 -33 -98 -593
-115 -626 -20 -39 -57 -34 -61 8 -4 39 92 595 108 624 16 30 64 26 68 -6z"/>
<path d="M3716 3932 c-5 -8 -41 -210 -78 -442 -5 -36 -27 -153 -48 -260 -21
-107 -40 -207 -43 -222 l-4 -28 122 0 123 0 16 93 c9 50 24 137 34 192 l17
100 79 7 c186 17 224 58 262 282 22 131 16 202 -19 232 -15 13 -44 28 -65 34
-51 16 -387 26 -396 12z m282 -191 c6 -55 -18 -171 -39 -192 -25 -25 -69 -26
-69 -1 0 20 28 189 36 215 4 14 14 17 37 15 28 -3 32 -7 35 -37z"/>
<path d="M4320 3933 c0 -8 -157 -906 -164 -935 -4 -16 6 -18 98 -18 l102 0 38
212 c20 117 39 214 41 216 1 2 6 -14 9 -35 8 -46 46 -363 46 -380 0 -10 29
-13 109 -13 l109 0 7 43 c4 23 29 166 55 317 82 461 100 566 100 584 0 14 -13
16 -94 16 -52 0 -97 -4 -100 -9 -3 -5 -22 -98 -41 -207 -30 -168 -43 -224 -46
-203 0 2 -15 96 -32 209 l-32 205 -102 3 c-57 1 -103 -1 -103 -5z"/>
<path d="M4985 3930 c-7 -11 -165 -902 -165 -930 0 -19 8 -20 209 -20 191 0
210 2 215 18 8 27 26 134 26 154 0 16 -10 18 -90 18 -49 0 -90 3 -89 8 0 4 8
50 18 102 l17 95 81 3 81 3 11 75 c17 112 22 104 -65 104 l-76 0 6 28 c3 15
11 57 17 95 l11 67 83 0 83 0 10 48 c6 26 13 68 17 95 l7 47 -200 0 c-118 0
-203 -4 -207 -10z"/>
<path d="M5480 3918 c-5 -13 -23 -102 -40 -198 -17 -96 -44 -254 -61 -350 -45
-258 -36 -315 58 -368 117 -65 301 -44 396 46 49 47 65 84 91 212 28 140 116
644 116 666 0 11 -22 14 -114 14 -63 0 -117 -4 -121 -9 -3 -6 -37 -184 -74
-396 -38 -212 -75 -392 -81 -400 -7 -8 -21 -15 -32 -15 -40 0 -40 -4 56 550
25 140 42 258 40 262 -3 4 -55 8 -115 8 -104 0 -110 -1 -119 -22z"/>
<path d="M2700 3903 c0 -33 -40 -193 -69 -275 l-20 -58 44 -19 c24 -10 70 -38
104 -60 33 -23 62 -37 65 -32 3 5 26 82 51 172 l46 164 -30 26 c-33 30 -164
109 -180 109 -6 0 -11 -12 -11 -27z"/>
<path d="M391 3878 c-7 -24 -73 -235 -147 -470 -74 -234 -134 -431 -134 -437
0 -7 42 -11 125 -11 l124 0 10 38 c6 20 15 58 22 85 l11 47 49 0 49 0 -6 -72
c-3 -40 -7 -79 -10 -85 -2 -10 27 -13 125 -13 l129 0 6 403 c4 221 9 437 12
480 l6 77 -179 0 -180 0 -12 -42z m150 -380 l-15 -198 -48 0 c-57 0 -59 -24
14 219 46 155 57 187 62 179 1 -2 -4 -92 -13 -200z"/>
<path d="M950 3914 c0 -5 -15 -94 -34 -199 -19 -104 -55 -307 -80 -450 -25
-143 -48 -270 -51 -282 -5 -23 -5 -23 119 -23 120 0 124 1 129 23 3 12 20 108
38 212 17 105 36 194 40 199 4 5 19 6 33 2 23 -6 26 -12 26 -49 0 -23 -14
-116 -30 -207 -17 -91 -30 -168 -30 -172 0 -5 52 -8 115 -8 63 0 115 1 115 3
0 1 13 79 30 172 16 94 30 189 30 211 0 48 -28 90 -74 109 l-30 13 43 12 c24
6 54 22 67 35 33 33 58 126 58 222 1 94 -14 125 -78 157 -32 16 -69 19 -237
24 -114 3 -199 1 -199 -4z m281 -170 c10 -13 11 -29 1 -87 -14 -81 -32 -107
-74 -107 -24 0 -28 3 -24 23 3 12 10 49 16 82 19 106 19 105 44 105 13 0 29
-7 37 -16z"/>
<path d="M3376 3763 c-3 -65 -9 -131 -12 -146 l-7 -29 49 7 c27 4 50 9 52 10
7 6 23 178 20 221 l-3 49 -46 3 -46 3 -7 -118z"/>
<path d="M3510 3763 c0 -32 -5 -87 -10 -123 -9 -65 -9 -65 23 -98 32 -33 32
-33 39 -10 3 13 6 66 7 118 1 86 -1 99 -24 133 -14 20 -28 37 -30 37 -3 0 -5
-26 -5 -57z"/>
<path d="M2946 3690 c-9 -52 -30 -133 -45 -180 -16 -47 -27 -87 -24 -90 8 -9
165 -2 175 8 14 14 66 226 74 297 l6 60 -85 0 -84 0 -17 -95z"/>
<path d="M3388 3548 l-46 -10 -13 -66 c-6 -37 -22 -105 -35 -152 -13 -46 -22
-86 -20 -87 3 -3 95 18 104 23 2 1 19 60 38 131 34 127 41 174 27 172 -5 -1
-29 -6 -55 -11z"/>
<path d="M2586 3463 c-10 -32 -42 -117 -71 -190 l-53 -132 57 -37 c31 -20 75
-52 98 -70 23 -19 44 -30 47 -26 9 15 115 300 130 351 11 38 12 52 3 59 -21
16 -176 102 -185 102 -5 0 -16 -26 -26 -57z"/>
<path d="M3480 3486 c0 -19 -13 -84 -29 -145 l-29 -112 25 -29 c14 -17 29 -30
33 -30 5 0 22 59 39 131 l31 130 -31 45 c-18 24 -34 44 -36 44 -2 0 -3 -15 -3
-34z"/>
<path d="M2990 3378 c-25 -5 -66 -7 -92 -6 -46 3 -46 3 -58 -37 -17 -57 -118
-306 -136 -332 l-14 -23 82 1 c125 1 125 1 164 99 68 167 105 272 102 289 -3
14 -10 16 -48 9z"/>
<path d="M3315 3185 c-16 -8 -40 -14 -51 -15 -18 0 -27 -15 -53 -87 -17 -49
-50 -128 -74 -176 -39 -79 -41 -88 -23 -83 12 3 40 8 64 12 49 8 54 16 134
204 70 164 70 175 3 145z"/>
<path d="M3381 3114 c-13 -38 -47 -117 -76 -176 l-52 -107 32 -31 32 -31 15
23 c15 23 66 135 111 243 27 63 26 68 -16 119 l-23 29 -23 -69z"/>
<path d="M2352 2928 c-50 -95 -98 -188 -109 -206 l-18 -33 29 -24 c16 -13 55
-42 87 -64 l58 -41 76 115 c108 166 168 272 162 288 -4 12 -178 137 -190 137
-3 0 -46 -78 -95 -172z"/>
<path d="M2805 2943 c-38 -7 -82 -12 -97 -10 -25 3 -31 -3 -65 -70 -21 -41
-75 -129 -119 -196 l-82 -122 101 -3 c72 -2 104 1 113 10 15 16 136 217 186
308 40 74 50 101 40 99 -4 -1 -38 -8 -77 -16z"/>
<path d="M5693 2895 c-3 -9 -3 -18 0 -21 9 -9 27 6 27 22 0 19 -19 18 -27 -1z"/>
<path d="M6444 2899 c-10 -17 13 -36 27 -22 12 12 4 33 -11 33 -5 0 -12 -5
-16 -11z"/>
<path d="M5885 2891 c-2 -5 7 -12 21 -15 25 -7 44 -1 44 12 0 10 -58 13 -65 3z"/>
<path d="M6259 2883 c-12 -15 -12 -16 4 -10 10 4 23 7 28 7 5 0 9 5 9 10 0 16
-26 12 -41 -7z"/>
<path d="M5492 2860 c-13 -16 -18 -30 -12 -30 6 0 7 -18 3 -46 -5 -38 -3 -46
8 -42 8 3 17 22 20 43 4 21 14 42 25 48 17 10 17 11 -1 18 -18 6 -18 8 8 18
35 14 34 21 -1 21 -20 0 -35 -9 -50 -30z"/>
<path d="M6173 2883 c-7 -2 -13 -11 -13 -19 0 -8 -3 -14 -7 -14 -5 0 -9 -25
-10 -55 -1 -42 2 -55 13 -55 8 0 14 10 14 23 0 38 12 67 26 67 8 0 14 5 14 10
0 6 -4 10 -10 10 -5 0 -10 5 -10 10 0 6 6 10 14 10 8 0 18 5 21 10 6 10 -30
13 -52 3z"/>
<path d="M6491 2825 c-12 -67 -9 -85 13 -85 8 0 12 13 12 33 -1 17 3 51 7 75
5 32 4 42 -6 42 -9 0 -18 -23 -26 -65z"/>
<path d="M3681 2814 c-17 -36 -31 -68 -31 -70 0 -11 29 -2 34 11 3 8 15 15 26
15 11 0 23 -7 26 -15 4 -8 12 -15 18 -15 9 0 10 14 5 53 -4 28 -8 60 -8 70 -1
10 -9 17 -20 17 -14 0 -28 -19 -50 -66z m49 6 c0 -20 -5 -30 -15 -30 -18 0
-18 2 -3 35 15 32 18 32 18 -5z"/>
<path d="M5786 2851 c-10 -11 -13 -21 -7 -25 5 -4 7 -22 4 -41 -4 -27 -2 -36
11 -41 10 -4 22 -2 29 5 8 8 8 11 -1 11 -22 0 -14 56 11 73 18 13 19 16 5 16
-10 1 -18 6 -18 11 0 16 -15 12 -34 -9z"/>
<path d="M4106 2850 c-45 -9 -55 -22 -52 -69 2 -31 6 -37 31 -41 20 -4 26 -8
17 -13 -7 -5 -26 -6 -42 -2 -37 8 -41 -12 -5 -21 35 -9 80 9 80 32 0 13 -8 20
-27 22 -37 4 -35 18 3 26 27 5 31 10 27 31 -4 17 -1 25 8 25 8 0 14 5 14 10 0
6 -3 9 -7 9 -5 -1 -25 -5 -47 -9z m9 -30 c3 -6 -1 -13 -10 -16 -19 -8 -30 0
-20 15 8 14 22 14 30 1z"/>
<path d="M3858 2839 c-26 -15 -22 -38 8 -49 31 -12 21 -34 -11 -26 -13 3 -26
2 -30 -4 -9 -15 41 -23 64 -10 27 14 27 46 1 53 -11 3 -20 11 -20 17 0 7 8 10
20 7 24 -6 36 8 14 17 -21 8 -26 7 -46 -5z"/>
<path d="M3964 2842 c-15 -10 -34 -47 -34 -66 0 -22 37 -39 67 -31 29 7 23 19
-9 20 -12 0 -23 6 -25 13 -3 8 7 12 31 12 31 0 36 3 36 24 0 31 -38 47 -66 28z
m41 -22 c3 -5 -3 -10 -15 -10 -12 0 -18 5 -15 10 3 6 10 10 15 10 5 0 12 -4
15 -10z"/>
<path d="M4175 2838 c-3 -7 -6 -31 -8 -53 l-2 -40 42 -1 41 -2 7 50 c4 27 5
52 2 55 -12 11 -27 -9 -27 -36 0 -26 -16 -51 -33 -51 -4 0 -5 20 -1 45 4 31 3
45 -5 45 -6 0 -14 -6 -16 -12z"/>
<path d="M4297 2843 c-3 -5 -8 -29 -11 -55 -6 -40 -5 -48 8 -48 10 0 16 9 16
25 0 15 11 36 27 51 27 25 26 47 -2 24 -10 -8 -15 -9 -15 -1 0 12 -16 15 -23
4z"/>
<path d="M4390 2840 c-12 -8 -11 -10 7 -10 12 0 25 -4 28 -10 3 -6 -4 -10 -18
-10 -29 0 -50 -22 -45 -47 3 -14 12 -18 43 -17 38 1 40 2 46 40 10 56 -19 81
-61 54z m28 -62 c-6 -18 -28 -21 -28 -4 0 9 7 16 16 16 9 0 14 -5 12 -12z"/>
<path d="M4490 2837 c-1 -7 -5 -31 -9 -54 -6 -34 -5 -43 5 -43 8 0 16 12 19
28 14 64 42 72 37 10 -2 -23 1 -38 7 -38 12 0 21 28 24 75 2 28 0 30 -40 31
-27 2 -43 -2 -43 -9z"/>
<path d="M4620 2832 c-28 -22 -30 -68 -4 -87 11 -8 15 -15 9 -15 -5 0 -3 -5 5
-10 13 -8 12 -10 -2 -10 -10 0 -18 -4 -18 -10 0 -13 37 -13 45 0 4 6 1 17 -5
25 -10 12 -9 15 4 15 9 0 16 5 16 10 0 6 -9 10 -19 10 -27 0 -33 13 -21 45 8
20 15 26 30 22 24 -6 36 8 14 17 -24 9 -30 8 -54 -12z"/>
<path d="M4720 2840 c-12 -8 -9 -10 13 -10 15 0 27 -4 27 -10 0 -5 -10 -10
-23 -10 -27 0 -47 -17 -47 -41 0 -24 11 -29 52 -22 33 5 37 9 41 42 6 54 -22
77 -63 51z m28 -62 c-6 -18 -28 -21 -28 -4 0 9 7 16 16 16 9 0 14 -5 12 -12z"/>
<path d="M4870 2836 c-1 -6 -5 -30 -9 -53 -6 -34 -5 -43 5 -43 8 0 16 12 19
28 14 65 42 72 37 8 -3 -28 -1 -37 9 -34 14 5 33 84 24 98 -7 12 -85 8 -85 -4z"/>
<path d="M4985 2816 c-11 -58 -4 -71 37 -72 40 -1 41 0 53 69 9 54 -19 50 -31
-5 -5 -23 -15 -43 -23 -46 -11 -4 -13 5 -9 42 7 56 -17 66 -27 12z"/>
<path d="M5100 2797 c-13 -60 -13 -57 4 -57 7 0 17 18 22 42 13 61 37 64 33 4
-3 -30 0 -46 7 -46 14 0 24 32 24 76 0 30 -2 31 -40 30 -39 -1 -39 -1 -50 -49z"/>
<path d="M5235 2825 c-29 -28 -31 -47 -9 -69 18 -18 33 -20 54 -6 12 8 11 10
-8 10 -28 0 -37 21 -22 50 8 15 18 20 31 17 23 -6 35 9 13 17 -26 10 -34 7
-59 -19z"/>
<path d="M5335 2841 c-3 -7 2 -11 14 -11 12 0 21 -4 21 -10 0 -5 -8 -10 -19
-10 -24 0 -44 -24 -39 -47 3 -14 12 -18 43 -17 l40 1 0 49 c0 46 -2 49 -27 52
-14 2 -29 -2 -33 -7z m35 -60 c0 -14 -18 -23 -30 -16 -6 4 -8 11 -5 16 8 12
35 12 35 0z"/>
<path d="M5570 2832 c-25 -21 -30 -69 -9 -83 36 -23 89 10 89 54 0 46 -41 61
-80 29z m48 -29 c4 -26 -24 -51 -40 -35 -9 9 -8 18 0 38 14 29 35 28 40 -3z"/>
<path d="M5675 2799 c-4 -27 -4 -53 -1 -56 12 -12 24 12 30 60 6 38 4 47 -7
47 -10 0 -17 -16 -22 -51z"/>
<path d="M5880 2840 c-12 -8 -9 -10 13 -10 15 0 27 -4 27 -10 0 -5 -11 -10
-24 -10 -28 0 -49 -22 -44 -47 2 -14 13 -18 45 -19 41 0 41 0 46 40 6 59 -21
83 -63 56z m28 -62 c-6 -18 -28 -21 -28 -4 0 9 7 16 16 16 9 0 14 -5 12 -12z"/>
<path d="M5989 2829 c-24 -24 -22 -67 4 -83 26 -16 71 12 75 47 6 54 -40 75
-79 36z m49 -31 c-4 -44 -38 -53 -38 -10 0 32 7 42 27 42 10 0 13 -10 11 -32z"/>
<path d="M6235 2841 c-3 -7 2 -11 14 -11 12 0 21 -4 21 -10 0 -5 -8 -10 -19
-10 -24 0 -44 -24 -39 -47 3 -14 12 -18 43 -17 l40 1 0 49 c0 46 -2 49 -27 52
-14 2 -29 -2 -33 -7z m35 -60 c0 -14 -18 -23 -30 -16 -6 4 -8 11 -5 16 8 12
35 12 35 0z"/>
<path d="M6345 2825 c-14 -13 -25 -31 -25 -39 0 -33 59 -62 75 -36 3 6 -3 10
-15 10 -26 0 -35 22 -20 50 8 15 18 20 31 17 23 -6 35 9 13 17 -26 10 -34 7
-59 -19z"/>
<path d="M6431 2800 c-14 -63 -14 -60 4 -60 8 0 15 6 15 13 1 6 5 31 9 55 12
63 -14 56 -28 -8z"/>
<path d="M1273 2794 c-10 -26 6 -236 21 -287 31 -103 106 -159 185 -137 50 13
57 24 25 39 -48 22 -72 98 -80 259 l-7 142 -69 0 c-54 0 -70 -3 -75 -16z"/>
<path d="M3165 2789 c-22 -10 -51 -19 -65 -19 -21 0 -32 -14 -75 -97 -27 -53
-73 -131 -102 -172 -28 -42 -51 -77 -49 -78 1 -1 20 4 41 12 22 8 50 14 63 15
16 0 33 18 65 68 86 134 168 274 165 281 -2 4 -21 0 -43 -10z"/>
<path d="M3230 2762 c0 -5 -43 -80 -95 -167 -52 -87 -94 -159 -93 -160 2 -1
19 -5 39 -9 l35 -6 81 122 c107 161 109 167 73 201 -29 28 -40 33 -40 19z"/>
<path d="M2190 2641 c0 -12 -109 -160 -172 -232 -26 -31 -48 -59 -48 -63 0 -3
24 -21 53 -39 28 -19 58 -41 66 -50 30 -38 57 -15 219 185 l62 76 -80 66 c-76
63 -100 77 -100 57z"/>
<path d="M2598 2505 c-3 -3 -46 -7 -96 -9 l-92 -4 -42 -54 c-23 -29 -73 -89
-112 -133 l-70 -80 100 -3 99 -3 73 78 c77 82 162 189 162 204 0 10 -14 12
-22 4z"/>
<path d="M2902 2280 c-77 -91 -99 -122 -87 -126 8 -4 25 -4 38 -1 25 7 197
169 216 205 11 20 10 22 -13 22 -14 0 -28 5 -31 10 -3 6 -9 10 -13 10 -4 0
-53 -54 -110 -120z"/>
<path d="M2895 2375 c-16 -8 -40 -14 -53 -15 -15 0 -58 -36 -131 -110 -60 -61
-101 -108 -92 -106 9 3 30 8 46 12 84 19 212 116 266 202 23 36 15 40 -36 17z"/>
<path d="M2668 2071 c-36 -25 -93 -61 -125 -79 -44 -25 -51 -32 -28 -27 38 7
221 98 258 128 l28 22 -33 1 c-24 1 -51 -12 -100 -45z"/>
<path d="M2512 2071 c-35 -30 -162 -95 -209 -108 l-28 -7 30 -7 c61 -14 102
-9 151 17 59 31 174 115 174 126 0 4 -19 8 -42 8 -32 -1 -51 -8 -76 -29z"/>
</g>
</svg>
